<svg width="70" height="48" viewBox="0 0 70 48" fill="none" xmlns="http://www.w3.org/2000/svg">
<rect x="0.5" y="0.5" width="69" height="47" rx="5.5" fill="white" stroke="#D9D9D9"/>
<path fill-rule="evenodd" clip-rule="evenodd" d="M18.2243 35.1715C18.2243 34.8821 18.1561 34.6315 18.0199 34.4199C17.8836 34.2083 17.7043 34.0469 17.4819 33.9355C17.7043 33.8242 17.8767 33.6598 17.9991 33.4427C18.1214 33.2255 18.1826 32.9807 18.1826 32.7079V32.5575C18.1826 32.2233 18.1187 31.9452 17.9908 31.7223C17.8628 31.4996 17.6834 31.3214 17.4526 31.1878C17.2219 31.0541 16.9451 30.9582 16.6228 30.8996C16.3001 30.8411 15.9415 30.812 15.5466 30.812C15.4132 30.812 15.2741 30.8148 15.1296 30.8203C14.9848 30.8259 14.8445 30.8328 14.7084 30.8411C14.572 30.8495 14.4468 30.8594 14.333 30.8705C14.2189 30.8817 14.1257 30.8928 14.0534 30.9038C13.8922 30.9318 13.7782 30.9818 13.7115 31.0541C13.6448 31.1266 13.6114 31.2575 13.6114 31.4467V36.5246C13.6114 36.7139 13.646 36.8447 13.7157 36.917C13.7851 36.9895 13.9033 37.0395 14.0702 37.0674C14.1536 37.084 14.2537 37.0979 14.3704 37.1092C14.4872 37.1203 14.6136 37.13 14.7499 37.1383C14.8863 37.1466 15.0266 37.1536 15.1712 37.1593C15.3158 37.1647 15.4575 37.1676 15.5966 37.1676C15.9581 37.1676 16.2987 37.1397 16.6186 37.084C16.9382 37.0285 17.2162 36.9295 17.4526 36.7875C17.6891 36.6456 17.8767 36.4535 18.0158 36.2114C18.1547 35.9691 18.2243 35.6642 18.2243 35.2967V35.1715ZM16.8063 32.7746C16.8063 32.8638 16.7925 32.9487 16.7646 33.0294C16.7367 33.11 16.691 33.1796 16.627 33.2383C16.5629 33.2966 16.4769 33.344 16.3684 33.38C16.26 33.4163 16.1223 33.4343 15.9555 33.4343H15.0213V31.9895C15.049 31.9895 15.0922 31.9883 15.1505 31.9854C15.2089 31.9826 15.2701 31.9812 15.334 31.9812H15.6551C16.0833 31.9812 16.3823 32.0355 16.5519 32.144C16.7214 32.2526 16.8063 32.421 16.8063 32.6492V32.7746ZM16.5936 35.8062C16.7576 35.6782 16.8398 35.4972 16.8398 35.2634V35.1715C16.8398 34.971 16.7757 34.7971 16.6478 34.6495C16.5198 34.5021 16.2891 34.4282 15.9555 34.4282H15.0213V35.9899H15.1672C15.2311 35.9899 15.2978 35.9916 15.3674 35.9942C15.4369 35.997 15.5036 35.9985 15.5676 35.9985H15.7052C16.1334 35.9985 16.4296 35.9344 16.5936 35.8062ZM22.7956 33.9438C22.7956 33.6377 22.7497 33.3773 22.6579 33.1629C22.5663 32.9487 22.4369 32.7732 22.2701 32.6367C22.1032 32.5004 21.8989 32.4004 21.6569 32.3362C21.4151 32.2722 21.144 32.2401 20.8436 32.2401C20.5654 32.2401 20.2943 32.2597 20.0304 32.2987C19.766 32.3376 19.5561 32.3766 19.4005 32.4155C19.2949 32.4436 19.2421 32.5046 19.2421 32.5991V33.2756C19.2421 33.3315 19.2559 33.3705 19.2838 33.3925C19.3115 33.4149 19.3475 33.4262 19.3922 33.4262H19.4338C19.5007 33.4204 19.584 33.4135 19.6841 33.4052C19.7842 33.3969 19.8968 33.3901 20.022 33.3842C20.1471 33.3788 20.2777 33.3747 20.414 33.3717C20.5502 33.3689 20.6851 33.3676 20.8187 33.3676C21.0132 33.3676 21.1661 33.4038 21.2774 33.4761C21.3886 33.5486 21.4442 33.7045 21.4442 33.9438V34.2446H20.9938C20.2763 34.2446 19.7549 34.3573 19.4296 34.5827C19.1043 34.8082 18.9417 35.1659 18.9417 35.6559V35.7313C18.9417 36.0039 18.9821 36.2322 19.0626 36.4158C19.1431 36.5996 19.2504 36.7472 19.3837 36.8587C19.5173 36.9699 19.6687 37.0493 19.8384 37.0965C20.008 37.1438 20.1847 37.1676 20.3681 37.1676C20.6184 37.1676 20.8339 37.1341 21.0146 37.0674C21.1952 37.0006 21.3662 36.9087 21.5276 36.7918V36.9253C21.5276 36.9699 21.5443 37.0089 21.5777 37.0422C21.6111 37.0757 21.6499 37.0923 21.6945 37.0923H22.6288C22.6731 37.0923 22.7121 37.0757 22.7455 37.0422C22.779 37.0089 22.7956 36.9699 22.7956 36.9253V33.9438ZM21.1481 36.0943C21.2619 36.0582 21.3692 36.015 21.4693 35.9649V35.0463H20.9938C20.8492 35.0463 20.7296 35.0588 20.6351 35.0837C20.5405 35.1089 20.4653 35.1465 20.4099 35.1966C20.3543 35.2466 20.3153 35.3107 20.2931 35.3886C20.2708 35.4667 20.2597 35.5556 20.2597 35.6559V35.7313C20.2597 35.9092 20.3027 36.0233 20.3889 36.0735C20.4752 36.1236 20.6072 36.1485 20.7852 36.1485C20.9131 36.1485 21.034 36.1307 21.1481 36.0943ZM27.9007 36.917V34.1358C27.9007 33.8745 27.8799 33.6279 27.8382 33.3969C27.7964 33.166 27.7214 32.9654 27.613 32.7954C27.5046 32.6256 27.3544 32.4906 27.1625 32.3905C26.9707 32.2902 26.7246 32.2401 26.4242 32.2401C26.1573 32.2401 25.9208 32.2724 25.7152 32.3369C25.5095 32.4014 25.2926 32.515 25.0646 32.6777V32.4753C25.0646 32.4305 25.0478 32.3912 25.0146 32.3575C24.9811 32.3239 24.9422 32.3069 24.8977 32.3069H23.9635C23.9188 32.3069 23.88 32.3235 23.8467 32.357C23.8133 32.3905 23.7967 32.4295 23.7967 32.4739V36.917C23.7967 36.9616 23.8145 37.002 23.8509 37.0381C23.8869 37.0743 23.9273 37.0923 23.9718 37.0923H24.9811C25.0257 37.0923 25.0646 37.0743 25.0979 37.0382C25.1313 37.0022 25.148 36.9619 25.148 36.9173V33.6341C25.2926 33.5564 25.4287 33.4926 25.5567 33.4426C25.6846 33.3925 25.8096 33.3676 25.9321 33.3676C26.0599 33.3676 26.1642 33.38 26.2449 33.4052C26.3255 33.4302 26.388 33.4732 26.4325 33.5346C26.477 33.5954 26.5077 33.6759 26.5243 33.7758C26.541 33.8759 26.5495 33.9981 26.5495 34.1426V36.9173C26.5495 36.9619 26.5661 37.0022 26.5995 37.0382C26.6328 37.0743 26.6716 37.0923 26.7163 37.0923H27.7256C27.7699 37.0923 27.8103 37.0743 27.8465 37.0381C27.8827 37.002 27.9007 36.9616 27.9007 36.917ZM32.0048 36.1071V36.8502C32.0048 36.9115 31.9907 36.9546 31.963 36.9796C31.9351 37.0048 31.8906 37.0256 31.8295 37.0422C31.7127 37.0701 31.5612 37.0979 31.3749 37.126C31.1886 37.1536 30.9703 37.1676 30.72 37.1676C30.1306 37.1676 29.6592 36.9867 29.3062 36.6246C28.953 36.2629 28.7765 35.7395 28.7765 35.0546V34.3531C28.7765 33.6683 28.953 33.1449 29.3062 32.7831C29.6592 32.421 30.1306 32.2401 30.72 32.2401C30.9703 32.2401 31.1886 32.254 31.3749 32.2817C31.5612 32.3098 31.7127 32.3376 31.8295 32.3653C31.8906 32.382 31.9351 32.403 31.963 32.4279C31.9907 32.4531 32.0048 32.4963 32.0048 32.5575V33.3008C32.0048 33.3454 31.9893 33.38 31.9589 33.4052C31.9282 33.4302 31.8906 33.4426 31.8463 33.4426H31.8295C31.6737 33.4262 31.5251 33.4121 31.3833 33.401C31.2414 33.3901 31.0509 33.3842 30.8118 33.3842C30.7172 33.3842 30.6284 33.3996 30.5449 33.4302C30.4614 33.4609 30.3892 33.5137 30.328 33.5888C30.2667 33.6641 30.2182 33.7642 30.182 33.8896C30.1458 34.0148 30.1278 34.1693 30.1278 34.3531V35.0546C30.1278 35.2383 30.1458 35.3928 30.182 35.5182C30.2182 35.6434 30.2667 35.7436 30.328 35.8187C30.3892 35.894 30.4614 35.9469 30.5449 35.9774C30.6284 36.0081 30.7172 36.0234 30.8118 36.0234C31.0509 36.0234 31.2414 36.0178 31.3833 36.0067C31.5251 35.9956 31.6737 35.9816 31.8295 35.9649H31.8463C31.8906 35.9649 31.9282 35.9774 31.9589 36.0025C31.9893 36.0277 32.0048 36.0624 32.0048 36.1071ZM36.6347 34.4116C36.6347 34.0774 36.5886 33.7768 36.4966 33.5096C36.4046 33.2423 36.2709 33.0155 36.0955 32.8289C35.92 32.6425 35.7026 32.4977 35.4436 32.3946C35.1845 32.2918 34.8848 32.2401 34.545 32.2401C34.2051 32.2401 33.9056 32.2918 33.6465 32.3946C33.3874 32.4977 33.1686 32.6425 32.9904 32.8289C32.812 33.0155 32.6768 33.2423 32.585 33.5096C32.4929 33.7768 32.447 34.0774 32.447 34.4116V34.9962C32.447 35.3302 32.4929 35.6309 32.585 35.8981C32.6768 36.1654 32.812 36.3922 32.9904 36.5788C33.1686 36.7654 33.3874 36.9101 33.6465 37.0131C33.9056 37.1159 34.2051 37.1676 34.545 37.1676C34.8848 37.1676 35.1845 37.1159 35.4436 37.0131C35.7026 36.9101 35.92 36.7654 36.0955 36.5788C36.2709 36.3922 36.4046 36.1654 36.4966 35.8981C36.5886 35.6309 36.6347 35.3302 36.6347 34.9962V34.4116ZM34.545 36.0233C35.0371 36.0233 35.2832 35.681 35.2832 34.9961V34.4115C35.2832 33.7322 35.0371 33.3925 34.545 33.3925C34.3016 33.3925 34.1165 33.4775 33.9893 33.6473C33.862 33.8172 33.7984 34.072 33.7984 34.4115V34.9961C33.7984 35.3357 33.862 35.5919 33.9893 35.7644C34.1165 35.9371 34.3016 36.0233 34.545 36.0233ZM41.5977 36.917V34.1358C41.5977 33.8745 41.5765 33.6279 41.5351 33.3969C41.4934 33.166 41.4182 32.9654 41.3096 32.7954C41.2012 32.6256 41.0512 32.4906 40.8594 32.3905C40.6675 32.2902 40.4213 32.2401 40.1211 32.2401C39.8542 32.2401 39.6178 32.2724 39.412 32.3369C39.2062 32.4014 38.9894 32.515 38.7614 32.6777V32.4753C38.7614 32.4305 38.7448 32.3912 38.7112 32.3575C38.6781 32.3239 38.6389 32.3069 38.5946 32.3069H37.6603C37.6157 32.3069 37.5769 32.3235 37.5435 32.357C37.5103 32.3905 37.4935 32.4295 37.4935 32.4739V36.917C37.4935 36.9616 37.5115 37.002 37.5477 37.0381C37.5839 37.0743 37.6241 37.0923 37.6687 37.0923H38.6781C38.7224 37.0923 38.7614 37.0743 38.7948 37.0382C38.8281 37.0022 38.8449 36.9619 38.8449 36.9173V33.6341C38.9894 33.5564 39.1257 33.4926 39.2535 33.4426C39.3815 33.3925 39.5066 33.3676 39.629 33.3676C39.7569 33.3676 39.8612 33.38 39.9417 33.4052C40.0222 33.4302 40.0849 33.4732 40.1295 33.5346C40.174 33.5954 40.2045 33.6759 40.2213 33.7758C40.2379 33.8759 40.2462 33.9981 40.2462 34.1426V36.9173C40.2462 36.9619 40.2628 37.0022 40.2963 37.0382C40.3297 37.0743 40.3685 37.0923 40.413 37.0923H41.4224C41.4669 37.0923 41.5072 37.0743 41.5434 37.0381C41.5795 37.002 41.5977 36.9616 41.5977 36.917ZM45.2349 36.2894V36.9357C45.2349 37.0295 45.182 37.0849 45.0764 37.1012C44.9484 37.1234 44.8372 37.1398 44.7428 37.1509C44.6482 37.162 44.5396 37.1676 44.4175 37.1676C44.1906 37.1676 43.9901 37.1494 43.8161 37.1133C43.642 37.0771 43.4966 37.0061 43.3806 36.9003C43.2647 36.7946 43.1762 36.6484 43.1154 36.4618C43.0548 36.2753 43.0243 36.0348 43.0243 35.7394V33.3176L42.3571 33.2089C42.3124 33.1978 42.2722 33.1769 42.236 33.1463C42.1998 33.1157 42.1818 33.0781 42.1818 33.0335V32.4822C42.1818 32.4378 42.1998 32.3974 42.236 32.3612C42.2722 32.3251 42.3124 32.3069 42.3571 32.3069H43.0243V31.622C43.0243 31.5775 43.0409 31.5414 43.074 31.5135C43.1069 31.4857 43.1459 31.4663 43.1902 31.455L44.2016 31.2799H44.2264C44.2706 31.2799 44.3066 31.2922 44.3343 31.3172C44.3619 31.3423 44.3757 31.3772 44.3757 31.4216V32.3069H45.0598C45.1041 32.3069 45.1431 32.3237 45.1765 32.3574C45.2099 32.391 45.2266 32.4305 45.2266 32.4753V33.1574C45.2266 33.2024 45.2099 33.2416 45.1765 33.2753C45.1431 33.3089 45.1041 33.3257 45.0598 33.3257H44.3757V35.7561C44.3757 35.9231 44.3896 36.0305 44.4175 36.0776C44.4452 36.125 44.523 36.1486 44.6508 36.1486H45.0598C45.1765 36.1486 45.2349 36.1955 45.2349 36.2894ZM49.6891 33.9438C49.6891 33.6377 49.6434 33.3773 49.5514 33.1629C49.4598 32.9487 49.3306 32.7732 49.1638 32.6367C48.997 32.5004 48.7926 32.4004 48.5506 32.3362C48.3088 32.2722 48.0377 32.2401 47.7373 32.2401C47.459 32.2401 47.188 32.2597 46.9241 32.2987C46.6597 32.3376 46.4498 32.3766 46.2942 32.4155C46.1882 32.4436 46.1358 32.5046 46.1358 32.5991V33.2756C46.1358 33.3315 46.1494 33.3705 46.1773 33.3925C46.2052 33.4149 46.2412 33.4262 46.2858 33.4262H46.3275C46.3944 33.4204 46.4777 33.4135 46.5778 33.4052C46.6779 33.3969 46.7905 33.3901 46.9156 33.3842C47.0408 33.3788 47.1714 33.3747 47.3077 33.3717C47.4439 33.3689 47.5788 33.3676 47.7122 33.3676C47.9069 33.3676 48.0598 33.4038 48.1711 33.4761C48.2823 33.5486 48.3379 33.7045 48.3379 33.9438V34.2446H47.8875C47.1699 34.2446 46.6486 34.3573 46.3233 34.5827C45.998 34.8082 45.8354 35.1659 45.8354 35.6559V35.7313C45.8354 36.0039 45.8756 36.2322 45.9563 36.4158C46.0367 36.5996 46.1441 36.7472 46.2774 36.8587C46.411 36.9699 46.5624 37.0493 46.7321 37.0965C46.9017 37.1438 47.0782 37.1676 47.2618 37.1676C47.5121 37.1676 47.7274 37.1341 47.9083 37.0674C48.0889 37.0006 48.2597 36.9087 48.4214 36.7918V36.9253C48.4214 36.9699 48.438 37.0089 48.4714 37.0422C48.5047 37.0757 48.5436 37.0923 48.5882 37.0923H49.5225C49.5668 37.0923 49.6058 37.0757 49.6392 37.0422C49.6725 37.0089 49.6891 36.9699 49.6891 36.9253V33.9438ZM48.0418 36.0943C48.1556 36.0582 48.2629 36.015 48.363 35.9649V35.0463H47.8875C47.7429 35.0463 47.6233 35.0588 47.5288 35.0837C47.4342 35.1089 47.359 35.1465 47.3036 35.1966C47.2478 35.2466 47.2088 35.3107 47.1868 35.3886C47.1645 35.4667 47.1534 35.5556 47.1534 35.6559V35.7313C47.1534 35.9092 47.1964 36.0233 47.2826 36.0735C47.3689 36.1236 47.5009 36.1485 47.6789 36.1485C47.8068 36.1485 47.9275 36.1307 48.0418 36.0943ZM53.7933 36.8502V36.1071C53.7933 36.0624 53.7779 36.0277 53.7474 36.0025C53.7168 35.9774 53.6794 35.9649 53.6348 35.9649H53.6182C53.4625 35.9816 53.3137 35.9956 53.1718 36.0067C53.0301 36.0178 52.8396 36.0234 52.6006 36.0234C52.5058 36.0234 52.4168 36.0081 52.3336 35.9774C52.2501 35.9469 52.1777 35.894 52.1166 35.8187C52.0554 35.7436 52.0068 35.6434 51.9707 35.5182C51.9344 35.3928 51.9165 35.2383 51.9165 35.0546V34.3531C51.9165 34.1693 51.9344 34.0148 51.9707 33.8896C52.0068 33.7642 52.0554 33.6641 52.1166 33.5888C52.1777 33.5137 52.2501 33.4609 52.3336 33.4302C52.4168 33.3996 52.5058 33.3842 52.6006 33.3842C52.8396 33.3842 53.0301 33.3901 53.1718 33.401C53.3137 33.4121 53.4625 33.4262 53.6182 33.4426H53.6348C53.6794 33.4426 53.7168 33.4302 53.7474 33.4052C53.7779 33.38 53.7933 33.3454 53.7933 33.3008V32.5575C53.7933 32.4963 53.7795 32.4531 53.7516 32.4279C53.7235 32.403 53.6794 32.382 53.6182 32.3653C53.5015 32.3376 53.3497 32.3098 53.1635 32.2817C52.9771 32.254 52.7591 32.2401 52.5088 32.2401C51.919 32.2401 51.448 32.421 51.0948 32.7831C50.7416 33.1449 50.5651 33.6683 50.5651 34.3531V35.0546C50.5651 35.7395 50.7416 36.2629 51.0948 36.6246C51.448 36.9867 51.919 37.1676 52.5088 37.1676C52.7591 37.1676 52.9771 37.1536 53.1635 37.126C53.3497 37.0979 53.5015 37.0701 53.6182 37.0422C53.6794 37.0256 53.7235 37.0048 53.7516 36.9796C53.7795 36.9546 53.7933 36.9115 53.7933 36.8502ZM57.3885 36.2894V36.9357C57.3885 37.0295 57.3355 37.0849 57.23 37.1012C57.102 37.1234 56.9908 37.1398 56.8964 37.1509C56.8016 37.162 56.6932 37.1676 56.5711 37.1676C56.3442 37.1676 56.1438 37.1494 55.9697 37.1133C55.7954 37.0771 55.6503 37.0061 55.5344 36.9003C55.4183 36.7946 55.3298 36.6484 55.269 36.4618C55.2084 36.2753 55.1779 36.0348 55.1779 35.7394V33.3176L54.5107 33.2089C54.466 33.1978 54.4258 33.1769 54.3896 33.1463C54.3534 33.1157 54.3354 33.0781 54.3354 33.0335V32.4822C54.3354 32.4378 54.3534 32.3974 54.3896 32.3612C54.4258 32.3251 54.466 32.3069 54.5107 32.3069H55.1779V31.622C55.1779 31.5775 55.1945 31.5414 55.2276 31.5135C55.2605 31.4857 55.2993 31.4663 55.3437 31.455L56.3551 31.2799H56.38C56.4242 31.2799 56.4602 31.2922 56.4876 31.3172C56.5155 31.3423 56.5293 31.3772 56.5293 31.4216V32.3069H57.2134C57.2577 32.3069 57.2967 32.3237 57.3301 32.3574C57.3634 32.391 57.3802 32.4305 57.3802 32.4753V33.1574C57.3802 33.2024 57.3634 33.2416 57.3301 33.2753C57.2967 33.3089 57.2577 33.3257 57.2134 33.3257H56.5293V35.7561C56.5293 35.9231 56.5432 36.0305 56.5711 36.0776C56.5988 36.125 56.6766 36.1486 56.8046 36.1486H57.2134C57.3301 36.1486 57.3885 36.1955 57.3885 36.2894Z" fill="#005697"/>
<path d="M52.6188 14.7397H39.0665L37.6882 16.2934L33.2155 21.3348V21.335L31.8373 22.8885H18.4641L19.821 21.3153L20.4633 20.5706L21.8203 18.9973H15.6583C14.5326 18.9973 13.6114 19.943 13.6114 21.0986V25.5326C13.6114 26.6884 14.5326 27.6341 15.6583 27.6341H39.2492C40.3749 27.6341 41.9128 26.9317 42.6666 26.0733L46.235 22.0096L52.6188 14.7397Z" fill="#005697"/>
<path d="M55.3418 10C56.4676 10 57.3887 10.9457 57.3887 12.1015V16.5353C57.3887 17.691 56.4676 18.6368 55.3418 18.6368H49.1999L50.5697 17.0753H50.5699L51.2491 16.3012L52.6189 14.7398H39.0667L31.8375 22.8945H18.3813L28.0314 11.9701L28.3966 11.5566C29.153 10.7005 30.6929 10 31.8186 10H55.3418V10Z" fill="#FBD500"/>
</svg>
