<svg width="70" height="48" viewBox="0 0 70 48" fill="none" xmlns="http://www.w3.org/2000/svg">
<rect x="0.5" y="0.5" width="69" height="47" rx="5.5" fill="white" stroke="#D9D9D9"/>
<path fill-rule="evenodd" clip-rule="evenodd" d="M14.2795 27.5336C13.8966 27.746 13.489 27.852 13.0569 27.852H12.7235C12.6369 27.852 12.5132 27.8448 12.1559 27.7816L13.3638 22.6424C13.586 22.4427 13.8257 22.3131 14.1036 22.2504C14.3815 22.188 14.5605 22.1711 14.7335 22.1711C15.2643 22.1711 15.675 22.3252 15.8727 22.6626C16.0701 22.9997 16.1691 23.4681 16.1691 24.0675C16.1691 24.5548 16.0886 25.0232 15.9283 25.4728C15.7676 25.9224 15.5485 26.3251 15.2707 26.6812C14.9928 27.0371 14.6622 27.3214 14.2795 27.5336ZM17.0028 20.1521C16.5702 19.9399 16.058 19.8336 15.4651 19.8336C15.1809 19.8336 14.9154 19.8649 14.6686 19.9273C14.4214 19.99 14.1885 20.0708 13.9417 20.1831L15.0762 15.356L12.2048 15.8055L9 29.4258C9.35808 29.6008 9.7377 29.7381 10.1393 29.8379C10.5405 29.9378 10.9202 30.0126 11.2784 30.0627C11.6365 30.1125 11.9547 30.1406 12.2326 30.1471C12.5105 30.1532 12.705 30.1564 12.8161 30.1564C13.6804 30.1564 14.4834 29.9907 15.2243 29.6598C15.9653 29.3291 16.6073 28.8795 17.1509 28.3111C17.6943 27.7428 18.1234 27.0745 18.4384 26.3064C18.7534 25.5383 18.9108 24.7233 18.9108 23.8615C18.9108 23.2995 18.8427 22.7749 18.7069 22.2878C18.5709 21.8006 18.361 21.3762 18.0771 21.0138C17.7929 20.6517 17.4348 20.3645 17.0028 20.1521ZM24.5973 18.6313L25.0192 16.8365H22.2685L21.8466 18.6313H24.5973ZM27.7424 27.624C27.9446 27.7266 28.2232 27.7776 28.5776 27.7776C28.8814 27.7776 29.1756 27.7489 29.4604 27.6913C29.6466 27.6536 29.8399 27.6092 30.0323 27.5428L29.4594 29.9662C29.4144 29.9773 29.3448 29.9942 29.2991 30.0049C28.8559 30.1072 28.3308 30.1584 27.7233 30.1584C26.8499 30.1584 26.1727 30.0271 25.6919 29.7649C25.2107 29.5026 24.869 29.1442 24.6666 28.6896C24.464 28.2354 24.3753 27.7138 24.4009 27.1248C24.4261 26.5362 24.5148 25.9151 24.6666 25.2623L26.5272 17.3134L29.4699 16.8525L28.7484 19.8286H31.9L31.3305 22.1711H28.198L27.3626 25.704C27.2866 25.9986 27.2392 26.2737 27.2202 26.5296C27.2013 26.7857 27.2326 27.0066 27.3152 27.192C27.3973 27.3777 27.5396 27.5217 27.7424 27.624ZM62 19.8319H59.2494L57.6495 26.6392H57.6523L57.4325 27.5756C57.279 27.6192 57.1262 27.6584 56.9745 27.6891C56.6897 27.7467 56.3955 27.7756 56.0917 27.7756C55.7371 27.7756 55.4587 27.7245 55.2563 27.6219C55.0537 27.5196 54.9114 27.3756 54.8291 27.1898C54.7467 27.0045 54.7152 26.7837 54.7342 26.5274C54.7533 26.2716 54.8007 25.9965 54.8767 25.7018L55.7119 22.169L56.2625 19.8265L56.2627 19.8258H53.4526L52.1807 25.2603C52.0289 25.9131 51.9402 26.5341 51.915 27.1228C51.8894 27.7116 51.9781 28.2334 52.1807 28.6875C52.383 29.142 52.7247 29.5006 53.206 29.7628C53.6867 30.0249 54.364 30.1564 55.2373 30.1564C55.8449 30.1564 56.37 30.1052 56.8132 30.0027C56.8311 29.9986 56.8483 29.9942 56.8658 29.9898L56.8645 29.9949C56.7414 30.5556 56.492 31.0103 56.0918 31.3652C55.6912 31.7204 55.0968 31.898 54.3086 31.898C53.9721 31.898 53.6663 31.8778 53.3893 31.839L52.8479 34.1425C53.2141 34.1905 53.62 34.2153 54.0683 34.2153C54.9059 34.2153 55.6392 34.1185 56.2674 33.9254C56.8957 33.7323 57.4344 33.4396 57.8842 33.0471C58.3337 32.6547 58.7095 32.1623 59.0114 31.5709C59.3131 30.979 59.5564 30.2785 59.7413 29.4685L61.6446 21.3766L61.6377 21.3736L62 19.8319ZM19.1334 30.1584L21.5617 19.8259H24.3124L21.8841 30.1584H19.1334ZM48.5085 22.1711C47.2259 22.1711 46.981 22.1711 46.4555 22.4468C46.0824 22.6423 45.7736 22.9364 45.5024 23.2794C45.2309 23.6226 45.0183 24.0186 44.8642 24.4676C44.7097 24.9169 44.6328 25.3846 44.6328 25.8711C44.6328 26.4698 44.7314 26.9442 44.929 27.2933C45.126 27.6427 45.4901 27.8172 46.0206 27.8172C46.3042 27.8172 46.5601 27.7612 46.7885 27.6488C47.0166 27.5366 47.2603 27.3493 47.5193 27.0874C47.5439 26.7758 47.5841 26.4483 47.6397 26.105C47.6903 25.7915 47.7535 25.4989 47.8112 25.2314L47.8273 25.1569L48.5085 22.1711ZM50.4614 25.6465C50.2885 26.3578 50.2392 27.0718 50.3133 27.7892C50.3874 28.5068 50.6587 29.6061 50.9233 30.1564H48.2615C48.0192 29.7419 47.9656 29.4915 47.9285 29.3185C47.9159 29.2593 47.9051 29.2091 47.8894 29.1645C47.5439 29.4517 47.1615 29.6886 46.7423 29.8756C46.3228 30.0627 45.854 30.1564 45.3359 30.1564C44.7191 30.1564 44.1917 30.047 43.754 29.8289C43.3159 29.6107 42.9582 29.3175 42.6808 28.9494C42.4031 28.5816 42.2025 28.1512 42.0795 27.6583C41.9559 27.1655 41.8944 26.6384 41.8944 26.077C41.8944 25.2162 42.0452 24.4053 42.3477 23.6444C42.6498 22.8835 43.0693 22.2191 43.606 21.6513C44.1424 21.0837 45.4375 19.832 47.5626 19.832L51.8299 19.8319L50.4614 25.6465ZM34.3675 27.782C34.5786 27.8324 34.8393 27.8574 35.15 27.8574C35.6343 27.8574 36.0749 27.7664 36.4726 27.5843C36.8698 27.4023 37.2083 27.148 37.4877 26.8213C37.7672 26.4948 37.9842 26.1025 38.1397 25.6439C38.2947 25.1855 38.3725 24.6802 38.3725 24.1274C38.3725 23.5875 38.2544 23.1289 38.0186 22.7522C37.7826 22.3753 37.3688 22.1751 36.7852 22.1727C36.3771 22.1711 35.6995 22.1711 35.6995 22.1711L34.3675 27.782ZM41.1294 23.9201C41.1294 24.8371 40.9804 25.6754 40.6823 26.4351C40.3844 27.1951 39.9713 27.8513 39.4437 28.4036C38.9156 28.9565 38.2823 29.3866 37.5436 29.6942C36.8046 30.0018 36.0005 30.1557 35.1312 30.1557C34.7089 30.1557 34.2866 30.1181 33.8646 30.0427L33.0263 33.4524H30.2694L33.4696 19.8322C33.8038 19.832 35.1673 19.8321 36.1857 19.8321L37.1431 19.8322C37.8384 19.8322 38.4377 19.939 38.9406 20.1524C39.4437 20.3661 39.8563 20.6581 40.1794 21.0284C40.5021 21.399 40.7411 21.8323 40.8965 22.3282C41.0516 22.8246 41.1294 23.355 41.1294 23.9201Z" fill="#002855"/>
</svg>
