<svg width="70" height="48" viewBox="0 0 70 48" fill="none" xmlns="http://www.w3.org/2000/svg">
<rect x="0.5" y="0.5" width="69" height="47" rx="5.5" fill="white" stroke="#D9D9D9"/>
<path d="M38.09 38.9997C45.8851 39.0373 53 32.5841 53 24.7338C53 16.1497 45.8851 10.2155 38.09 10.2188H31.3813C23.4933 10.2155 17 16.1513 17 24.7338C17 32.5857 23.4933 39.0373 31.3813 38.9997H38.09Z" fill="#0079BE"/>
<path d="M31.4133 11.4082C24.2047 11.4106 18.3642 17.3063 18.3618 24.5831C18.3642 31.859 24.2047 37.7547 31.4133 37.7571C38.6228 37.7547 44.4656 31.859 44.4664 24.5831C44.4656 17.3063 38.6236 11.4106 31.4133 11.4082ZM23.1409 24.5831C23.1394 22.9006 23.6454 21.2569 24.593 19.8666C25.5405 18.4763 26.8854 17.4043 28.4518 16.7905V32.3749C26.8852 31.7615 25.5402 30.6897 24.5926 29.2995C23.6451 27.9093 23.1391 26.2655 23.1409 24.5831ZM34.374 32.3781V16.7897C35.9417 17.4026 37.2877 18.4746 38.2359 19.8653C39.1841 21.256 39.6903 22.9007 39.6882 24.5839C39.69 26.267 39.1837 27.9115 38.2355 29.3022C37.2873 30.6928 35.9415 31.7649 34.374 32.3781Z" fill="white"/>
<path d="M38.09 38.9997C45.8851 39.0373 53 32.5841 53 24.7338C53 16.1497 45.8851 10.2155 38.09 10.2188H31.3813C23.4933 10.2155 17 16.1513 17 24.7338C17 32.5857 23.4933 39.0373 31.3813 38.9997H38.09Z" fill="#0079BE"/>
<path d="M31.4133 11.4082C24.2047 11.4106 18.3642 17.3063 18.3618 24.5831C18.3642 31.859 24.2047 37.7547 31.4133 37.7571C38.6228 37.7547 44.4656 31.859 44.4664 24.5831C44.4656 17.3063 38.6236 11.4106 31.4133 11.4082ZM23.1409 24.5831C23.1394 22.9006 23.6454 21.2569 24.593 19.8666C25.5405 18.4763 26.8854 17.4043 28.4518 16.7905V32.3749C26.8852 31.7615 25.5402 30.6897 24.5926 29.2995C23.6451 27.9093 23.1391 26.2655 23.1409 24.5831ZM34.374 32.3781V16.7897C35.9417 17.4026 37.2877 18.4746 38.2359 19.8653C39.1841 21.256 39.6903 22.9007 39.6882 24.5839C39.69 26.267 39.1837 27.9115 38.2355 29.3022C37.2873 30.6928 35.9415 31.7649 34.374 32.3781Z" fill="white"/>
</svg>
