<svg width="70" height="48" viewBox="0 0 70 48" fill="none" xmlns="http://www.w3.org/2000/svg">
<rect x="0.5" y="0.5" width="69" height="47" rx="5.5" fill="white" stroke="#D9D9D9"/>
<path d="M44.6363 24.5745C45.6637 24.5969 46.6969 24.5292 47.7201 24.6097C48.7564 24.803 49.0061 26.3718 48.0855 26.8856C47.4573 27.224 46.7111 27.0116 46.0301 27.0713H44.6363V24.5745ZM48.3141 21.7485C48.5424 22.5542 47.7657 23.2775 46.9898 23.1666H44.6363C44.6528 22.4068 44.6041 21.5822 44.6602 20.8624C45.603 20.889 46.5545 20.8083 47.4919 20.9046C47.8946 21.0058 48.2317 21.3369 48.3141 21.7485ZM53.9781 9.80084C54.0218 11.3394 53.9844 12.9594 53.997 14.5292C53.9941 20.9115 54.0031 27.2936 53.992 33.6762C53.9506 36.0681 51.8308 38.1465 49.4555 38.1943C47.0778 38.2039 44.6998 38.1958 42.3218 38.1984V28.5497C44.9127 28.5364 47.505 28.5769 50.0949 28.5295C51.2963 28.4541 52.6123 27.6613 52.6682 26.3392C52.8097 25.0113 51.5578 24.0929 50.3692 23.9478C49.9123 23.9359 49.9256 23.8146 50.3692 23.7617C51.5028 23.5167 52.393 22.3433 52.0595 21.1683C51.7753 19.9324 50.4092 19.454 49.273 19.4564C46.9563 19.4406 44.6391 19.4542 42.3223 19.4496C42.3373 17.6483 42.2911 15.8451 42.3472 14.0451C42.5308 11.6964 44.7039 9.75943 47.0459 9.80145C49.3569 9.8011 51.6676 9.8011 53.9781 9.80101V9.80084Z" fill="url(#paint0_linear_295_743)"/>
<path d="M16.1412 14.2883C16.2003 11.9002 18.3292 9.83885 20.7015 9.80395C23.0704 9.79665 25.4396 9.8029 27.8085 9.80079C27.802 17.791 27.8213 25.782 27.7987 33.7717C27.7075 36.1309 25.6018 38.1529 23.2554 38.1947C20.882 38.2033 18.5084 38.1959 16.1349 38.1983V28.2243C18.4403 28.7689 20.8579 29.0008 23.2098 28.6395C24.6157 28.4133 26.1538 27.7229 26.6298 26.2644C26.9801 25.0168 26.7829 23.7038 26.835 22.4233V19.4496H22.7648C22.7465 21.4163 22.8022 23.3865 22.7353 25.3509C22.6256 26.5583 21.4299 27.3254 20.2911 27.2845C18.8789 27.2994 16.0803 26.261 16.0803 26.261C16.0732 22.5761 16.1212 17.9613 16.1412 14.2887V14.2883Z" fill="url(#paint1_linear_295_743)"/>
<path d="M29.3264 20.649C29.1121 20.6944 29.2833 19.9192 29.2285 19.6251C29.2431 17.7657 29.198 15.9043 29.2534 14.0462C29.4365 11.6875 31.6263 9.74574 33.9778 9.80095H40.9026C40.8961 17.7911 40.9154 25.7822 40.8929 33.7719C40.8015 36.131 38.6957 38.153 36.3492 38.1948C33.9757 38.2038 31.602 38.1962 29.2284 38.1985V27.2707C30.8495 28.6007 33.0527 28.8078 35.0723 28.8114C36.5948 28.8109 38.1084 28.5761 39.587 28.225V26.223C37.9207 27.0534 35.962 27.5809 34.1149 27.1038C32.8264 26.7831 31.8911 25.5379 31.9119 24.2081C31.7627 22.8253 32.5732 21.3654 33.9321 20.9543C35.6193 20.4261 37.4581 20.8301 39.0396 21.5168C39.3784 21.6942 39.7224 21.9143 39.5869 21.3479V19.7743C36.9419 19.145 34.127 18.9134 31.4697 19.598C30.7006 19.815 29.9512 20.1441 29.3264 20.6492V20.649Z" fill="url(#paint2_linear_295_743)"/>
<defs>
<linearGradient id="paint0_linear_295_743" x1="42.2421" y1="23.3925" x2="53.9233" y2="23.3925" gradientUnits="userSpaceOnUse">
<stop stop-color="#58B03A"/>
<stop offset="1" stop-color="#55B330"/>
</linearGradient>
<linearGradient id="paint1_linear_295_743" x1="15.8866" y1="24.2715" x2="27.6171" y2="24.2715" gradientUnits="userSpaceOnUse">
<stop stop-color="#0F6EB6"/>
<stop offset="1" stop-color="#006DBA"/>
</linearGradient>
<linearGradient id="paint2_linear_295_743" x1="29.2113" y1="23.6677" x2="40.9004" y2="23.6677" gradientUnits="userSpaceOnUse">
<stop stop-color="#DE0D3D"/>
<stop offset="1" stop-color="#E30138"/>
</linearGradient>
</defs>
</svg>
