<svg width="70" height="48" viewBox="0 0 70 48" fill="none" xmlns="http://www.w3.org/2000/svg">
<rect x="0.5" y="0.5" width="69" height="47" rx="5.5" fill="white" stroke="#D9D9D9"/>
<path d="M40.1899 24.2537C40.1899 31.8786 34.0796 38.0597 26.5423 38.0597C19.005 38.0597 12.8948 31.8786 12.8948 24.2537C12.8948 16.6289 19.005 10.4478 26.5423 10.4478C34.0796 10.4478 40.1899 16.6289 40.1899 24.2537Z" fill="#ED0006"/>
<path d="M57.8947 24.2537C57.8947 31.8786 51.7845 38.0597 44.2472 38.0597C36.7098 38.0597 30.5996 31.8786 30.5996 24.2537C30.5996 16.6289 36.7098 10.4478 44.2472 10.4478C51.7845 10.4478 57.8947 16.6289 57.8947 24.2537Z" fill="#0099DF"/>
<path fill-rule="evenodd" clip-rule="evenodd" d="M35.3949 13.7461C38.3292 16.2784 40.1899 20.0463 40.1899 24.254C40.1899 28.4616 38.3292 32.2295 35.3949 34.7618C32.4605 32.2295 30.5999 28.4616 30.5999 24.254C30.5999 20.0463 32.4605 16.2784 35.3949 13.7461Z" fill="#6C6BBD"/>
</svg>
