<svg width="70" height="48" viewBox="0 0 70 48" fill="none" xmlns="http://www.w3.org/2000/svg">
<rect x="0.5" y="0.5" width="69" height="47" rx="5.5" fill="white" stroke="#D9D9D9"/>
<path d="M21.6555 10.0015H32.687C34.2269 10.0015 35.1847 11.2566 34.8255 12.8016L29.6895 34.8524C29.327 36.392 27.7853 37.6482 26.2443 37.6482H15.2138C13.676 37.6482 12.7161 36.392 13.0754 34.8524L18.2135 12.8016C18.5727 11.2566 20.1137 10.0015 21.6555 10.0015Z" fill="#E21836"/>
<path d="M31.7685 10H44.4545C45.9941 10 45.2999 11.2552 44.9377 12.8002L39.8025 34.8509C39.4422 36.3905 39.5546 37.6468 38.0117 37.6468H25.3257C23.7828 37.6468 22.828 36.3905 23.1905 34.8509L28.3254 12.8002C28.69 11.2552 30.2278 10 31.7685 10Z" fill="#00447C"/>
<path d="M43.9515 10H54.9831C56.5251 10 57.4829 11.2552 57.1207 12.8002L51.9855 34.8509C51.6231 36.3905 50.0802 37.6468 48.5384 37.6468H37.512C35.9691 37.6468 35.0122 36.3905 35.3735 34.8509L40.5095 12.8002C40.8687 11.2552 42.4087 10 43.9515 10Z" fill="#007B84"/>
<path d="M24.536 17.0668C23.4016 17.0783 23.0665 17.0668 22.9595 17.0415C22.9184 17.237 22.1529 20.7682 22.1507 20.7712C21.9859 21.4856 21.866 21.9949 21.4586 22.3237C21.2274 22.5149 20.9574 22.6071 20.6444 22.6071C20.1413 22.6071 19.8483 22.3574 19.7991 21.8836L19.7896 21.7209C19.7896 21.7209 19.9429 20.7639 19.9429 20.7586C19.9429 20.7586 20.7463 17.5405 20.8902 17.1152C20.8977 17.091 20.8999 17.0783 20.9018 17.0668C19.3379 17.0805 19.0607 17.0668 19.0416 17.0415C19.0311 17.0762 18.9924 17.2757 18.9924 17.2757L18.172 20.9027L18.1016 21.2103L17.9653 22.2165C17.9653 22.5149 18.0239 22.7585 18.1406 22.9645C18.5143 23.6176 19.5804 23.7155 20.1836 23.7155C20.9606 23.7155 21.6896 23.5504 22.1822 23.249C23.0372 22.7437 23.2609 21.954 23.4605 21.2522L23.553 20.8922C23.553 20.8922 24.3806 17.55 24.5212 17.1152C24.5266 17.091 24.5287 17.0783 24.536 17.0668ZM27.352 19.763C27.1524 19.763 26.7878 19.8114 26.4603 19.9719C26.3415 20.0329 26.2291 20.1034 26.1105 20.1736L26.2175 19.7872L26.1589 19.7221C25.4644 19.8627 25.309 19.8816 24.6674 19.9719L24.6136 20.0077C24.5391 20.6253 24.473 21.0897 24.1969 22.3037C24.0917 22.7511 23.9826 23.2028 23.8731 23.6492L23.9027 23.7059C24.5601 23.6712 24.7596 23.6712 25.331 23.6806L25.3773 23.6304C25.4499 23.2585 25.4593 23.1714 25.6201 22.4182C25.6956 22.0611 25.8532 21.2765 25.9309 20.9972C26.0737 20.931 26.2146 20.866 26.349 20.866C26.6693 20.866 26.6303 21.1453 26.6179 21.2566C26.6042 21.4435 26.4875 22.0539 26.3678 22.5779L26.288 22.9162C26.2323 23.166 26.1713 23.4088 26.1156 23.6564L26.1398 23.7059C26.7878 23.6712 26.9855 23.6712 27.5388 23.6806L27.6039 23.6304C27.7039 23.0496 27.7332 22.8942 27.9107 22.0485L28 21.66C28.1734 20.8996 28.2605 20.514 28.1293 20.1999C27.9906 19.848 27.6577 19.763 27.352 19.763ZM30.4977 20.5591C30.1533 20.6253 29.9336 20.6694 29.7152 20.6979C29.4988 20.7326 29.2877 20.764 28.9548 20.8103L28.9285 20.8342L28.9043 20.8533C28.8696 21.1012 28.8454 21.3155 28.7994 21.5674C28.7604 21.828 28.7005 22.124 28.6029 22.5494C28.5273 22.875 28.4883 22.9885 28.4453 23.103C28.4034 23.2176 28.3571 23.3289 28.2721 23.6492L28.292 23.6787L28.3087 23.7059C28.6198 23.6911 28.8234 23.6806 29.0325 23.6787C29.2415 23.6712 29.4579 23.6787 29.793 23.6806L29.8223 23.6567L29.8537 23.6303C29.9021 23.3416 29.9094 23.2638 29.939 23.1229C29.9683 22.9718 30.0188 22.7626 30.1428 22.2039C30.2014 21.9415 30.2667 21.6798 30.3275 21.412C30.3907 21.1453 30.4568 20.8826 30.5197 20.6202L30.5103 20.5884L30.4977 20.5591ZM30.505 19.4857C30.1921 19.301 29.6427 19.3596 29.273 19.6147C28.9044 19.8648 28.8624 20.2197 29.1743 20.4069C29.4819 20.5865 30.0334 20.533 30.3999 20.2757C30.7677 20.0202 30.8137 19.6685 30.505 19.4857ZM32.3979 23.7638C33.0311 23.7638 33.6802 23.5893 34.1687 23.0714C34.5446 22.6514 34.717 22.0265 34.7767 21.7692C34.9711 20.9163 34.8197 20.5181 34.6296 20.2755C34.3408 19.9058 33.8305 19.7872 33.301 19.7872C32.9827 19.7872 32.2244 19.8187 31.6321 20.3648C31.2067 20.7587 31.0101 21.2933 30.8916 21.8058C30.7719 22.3279 30.6342 23.268 31.4987 23.6178C31.7654 23.7323 32.1499 23.7638 32.3979 23.7638ZM32.3484 21.8447C32.4944 21.1989 32.6667 20.6568 33.1066 20.6568C33.4513 20.6568 33.4764 21.0601 33.3231 21.7082C33.2957 21.852 33.1698 22.3868 32.9996 22.6146C32.8808 22.7826 32.7401 22.8845 32.5847 22.8845C32.5385 22.8845 32.2634 22.8845 32.2591 22.4761C32.257 22.2744 32.2981 22.0685 32.3484 21.8447ZM36.3596 23.6807L36.4091 23.6304C36.4793 23.2586 36.4908 23.1712 36.6462 22.4183C36.724 22.0612 36.8847 21.2766 36.9603 20.9972C37.1033 20.9308 37.2418 20.8658 37.3806 20.8658C37.6987 20.8658 37.6599 21.1451 37.6473 21.2565C37.6357 21.4436 37.519 22.0537 37.3972 22.5778L37.3217 22.916C37.2639 23.1661 37.201 23.4086 37.1453 23.6565L37.1695 23.706C37.8197 23.6713 38.0098 23.6713 38.5664 23.6807L38.6336 23.6304C38.7312 23.0494 38.7575 22.894 38.9404 22.0486L39.0275 21.6598C39.2017 20.8994 39.2899 20.5141 39.1609 20.2C39.0181 19.848 38.683 19.7631 38.3816 19.7631C38.1818 19.7631 37.8154 19.8112 37.4897 19.972C37.3733 20.033 37.2566 20.1032 37.1421 20.1737L37.2418 19.7873L37.1883 19.7219C36.4941 19.8628 36.3354 19.8816 35.6947 19.972L35.6455 20.0078C35.5677 20.6254 35.5046 21.0895 35.2284 22.3038C35.1233 22.7512 35.0141 23.2029 34.9049 23.6493L34.9342 23.706C35.5927 23.6713 35.7893 23.6713 36.3596 23.6807ZM41.1365 23.7059C41.1774 23.5064 41.4202 22.3238 41.4223 22.3238C41.4223 22.3238 41.6291 21.4561 41.6417 21.4246C41.6417 21.4246 41.7068 21.3343 41.7719 21.2985H41.8676C42.7708 21.2985 43.7907 21.2985 44.5901 20.7105C45.134 20.3072 45.5059 19.7116 45.6718 18.9877C45.7148 18.8103 45.7465 18.5992 45.7465 18.3881C45.7465 18.1109 45.6909 17.8366 45.5301 17.6223C45.1224 17.052 44.3107 17.0415 43.3736 17.0372C43.3707 17.0372 42.9117 17.0415 42.9117 17.0415C41.7122 17.0563 41.2311 17.052 41.0335 17.0278C41.0168 17.1152 40.9854 17.2706 40.9854 17.2706C40.9854 17.2706 40.5557 19.262 40.5557 19.2652C40.5557 19.2652 39.5275 23.4991 39.4791 23.6986C40.5264 23.686 40.9558 23.686 41.1365 23.7059ZM41.9327 20.1684C41.9327 20.1684 42.3895 18.1811 42.3873 18.1886L42.4021 18.0867L42.4086 18.009L42.5912 18.0278C42.5912 18.0278 43.5333 18.1087 43.5554 18.1109C43.9272 18.2548 44.0805 18.6255 43.9735 19.1095C43.8759 19.5519 43.589 19.9237 43.2204 20.1033C42.9168 20.2555 42.5449 20.2682 42.1618 20.2682H41.9138L41.9327 20.1684ZM44.777 21.8816C44.6563 22.3962 44.5176 23.3362 45.3777 23.6713C45.652 23.788 45.8977 23.8226 46.1475 23.81C46.4113 23.7958 46.6557 23.6635 46.8821 23.4731C46.8617 23.5513 46.8413 23.6296 46.8208 23.7081L46.8598 23.7584C47.4785 23.7323 47.6705 23.7323 48.3408 23.7374L48.4016 23.6912C48.4995 23.1157 48.5917 22.557 48.8461 21.4562C48.97 20.9289 49.0937 20.4067 49.2209 19.8816L49.201 19.8238C48.5089 19.952 48.3239 19.9795 47.6581 20.0738L47.6076 20.115C47.6009 20.1685 47.5939 20.2198 47.5874 20.2712C47.4839 20.104 47.3339 19.9612 47.1024 19.8722C46.8063 19.7558 46.111 19.9058 45.5132 20.45C45.0932 20.8386 44.8916 21.3709 44.777 21.8816ZM46.2306 21.913C46.3788 21.2787 46.549 20.742 46.99 20.742C47.2688 20.742 47.4156 20.9993 47.3858 21.4382C47.3621 21.5476 47.3366 21.663 47.3062 21.7934C47.2621 21.9819 47.2142 22.1687 47.1677 22.3559C47.1204 22.4839 47.0652 22.6046 47.0047 22.685C46.8913 22.8458 46.6213 22.9455 46.4659 22.9455C46.4218 22.9455 46.1497 22.9455 46.1403 22.5444C46.1381 22.3446 46.1793 22.1389 46.2306 21.913ZM53.8214 19.8186L53.7679 19.7576C53.083 19.8964 52.9591 19.9184 52.3299 20.0034L52.2836 20.0496C52.2815 20.0571 52.2796 20.0687 52.2764 20.0792L52.2742 20.0687C51.8058 21.1494 51.8195 20.9162 51.4383 21.767C51.4361 21.7283 51.4361 21.7041 51.434 21.6629L51.3385 19.8186L51.2785 19.7576C50.5612 19.8964 50.5442 19.9184 49.8817 20.0034L49.8301 20.0496C49.8228 20.0717 49.8228 20.0959 49.8185 20.1222L49.8228 20.1316C49.9056 20.5549 49.8857 20.4605 49.9688 21.1284C50.0075 21.4562 50.0592 21.7858 50.0979 22.1095C50.1632 22.6513 50.1998 22.9181 50.2796 23.7449C49.8322 24.4833 49.7263 24.7626 49.2955 25.4106L49.2985 25.4171L48.9952 25.8968C48.9605 25.9473 48.929 25.982 48.8849 25.9968C48.8365 26.0208 48.7736 26.0251 48.6862 26.0251H48.5182L48.2684 26.8559L49.1253 26.8707C49.6284 26.8685 49.9446 26.6333 50.1148 26.3171L50.6537 25.3937H50.6451L50.7018 25.3286C51.0642 24.5483 53.8214 19.8186 53.8214 19.8186ZM44.777 30.7307H44.4135L45.759 26.2804H46.2053L46.347 25.8219L46.3607 26.3317C46.3441 26.6468 46.592 26.9262 47.2432 26.88H47.9964L48.2556 26.023H47.9722C47.8092 26.023 47.7337 25.9819 47.7431 25.8937L47.7294 25.375H46.3347V25.3777C45.8837 25.3871 44.5372 25.421 44.2645 25.4936C43.9346 25.5786 43.5869 25.8286 43.5869 25.8286L43.7235 25.3696H42.4189L42.147 26.2804L40.7835 30.7987H40.5189L40.2595 31.6495H42.858L42.7709 31.9331H44.0513L44.1363 31.6495H44.4955L44.777 30.7307ZM43.7109 27.1846C43.502 27.2424 43.1131 27.4177 43.1131 27.4177L43.4589 26.2804H44.4955L44.2454 27.1091C44.2454 27.1091 43.9252 27.1279 43.7109 27.1846ZM43.7308 28.8095C43.7308 28.8095 43.4052 28.8504 43.1909 28.8988C42.9798 28.9628 42.584 29.1644 42.584 29.1644L42.9411 27.9808H43.983L43.7308 28.8095ZM43.15 30.7412H42.1102L42.4116 29.7423H43.4482L43.15 30.7412ZM45.654 27.9808H47.1528L46.9374 28.6783H45.4187L45.1907 29.4408H46.5195L45.5134 30.8576C45.4429 30.9616 45.3797 30.9985 45.3096 31.0278C45.2391 31.0636 45.1466 31.1055 45.0396 31.1055H44.671L44.4177 31.9407H45.3819C45.8831 31.9407 46.1791 31.7126 46.3977 31.4134L47.0877 30.4691L47.2359 31.4279C47.2673 31.6075 47.3964 31.7126 47.4838 31.7535C47.5803 31.8019 47.6801 31.885 47.8209 31.8974C47.9721 31.9038 48.0812 31.9089 48.1538 31.9089H48.6276L48.9121 30.9743H48.7252C48.6179 30.9743 48.4332 30.9563 48.4017 30.9227C48.3703 30.8818 48.3703 30.8189 48.3533 30.7231L48.203 29.7622H47.5876L47.8575 29.4408H49.3732L49.6063 28.6783H48.203L48.4216 27.9808H49.8207L50.0801 27.1206H45.9092L45.654 27.9808ZM32.9954 30.9354L33.3452 29.7716H34.7829L35.0456 28.9061H33.6066L33.8262 28.1898H35.2325L35.493 27.3517H31.9744L31.7192 28.1898H32.5186L32.3054 28.9061H31.5039L31.2382 29.7864H32.0373L31.5711 31.3261C31.5082 31.5299 31.6007 31.6076 31.6593 31.7022C31.7192 31.7945 31.78 31.8555 31.9166 31.8902C32.0575 31.9216 32.154 31.9405 32.2852 31.9405H33.9061L34.1949 30.9816L33.4764 31.0803C33.3377 31.0803 32.9534 31.0636 32.9954 30.9354ZM33.1603 25.3644L32.7959 26.0229C32.718 26.1668 32.6478 26.256 32.5846 26.2972C32.5289 26.3319 32.4187 26.3464 32.259 26.3464H32.0689L31.8148 27.1888H32.4461C32.7497 27.1888 32.9828 27.0775 33.0941 27.0218C33.2138 26.9578 33.2452 26.9944 33.3377 26.9051L33.551 26.7204H35.5224L35.7841 25.8433H34.341L34.5929 25.3644H33.1603ZM36.0708 30.9523C36.0372 30.9039 36.0614 30.8187 36.1127 30.6412L36.6516 28.8577H38.5685C38.8478 28.8536 39.0495 28.8504 39.1807 28.841C39.3216 28.8262 39.4749 28.7759 39.6419 28.6856C39.8142 28.5909 39.9024 28.4912 39.9769 28.3766C40.06 28.2624 40.1933 28.0123 40.3079 27.6267L40.9852 25.3697L38.996 25.3813C38.996 25.3813 38.3835 25.4716 38.1138 25.5714C37.8417 25.6827 37.4529 25.9935 37.4529 25.9935L37.6325 25.3748H36.4037L34.6834 31.0803C34.6223 31.3018 34.5814 31.4626 34.572 31.5592C34.5688 31.6632 34.7033 31.7662 34.7904 31.8439C34.8934 31.9216 35.0455 31.909 35.1915 31.9216C35.3451 31.9332 35.5634 31.9404 35.8648 31.9404H36.8092L37.099 30.9617L36.2536 31.0416C36.1633 31.0416 36.098 30.9932 36.0708 30.9523ZM36.9993 27.6531H39.0127L38.8847 28.0542C38.8667 28.0637 38.8236 28.0344 38.6188 28.0586H36.8753L36.9993 27.6531ZM37.4026 26.3076H39.4329L39.2869 26.7908C39.2869 26.7908 38.33 26.7813 38.1767 26.8096C37.5023 26.9263 37.1084 27.2866 37.1084 27.2866L37.4026 26.3076ZM38.9298 29.3977C38.9131 29.4576 38.8867 29.4942 38.8499 29.5216C38.809 29.548 38.7429 29.5574 38.6442 29.5574H38.3573L38.3742 29.0688H37.1809L37.1325 31.4573C37.1306 31.6297 37.1473 31.7295 37.2734 31.8093C37.3995 31.9091 37.7881 31.9217 38.311 31.9217H39.0588L39.3288 31.0277L38.6778 31.0634L38.4614 31.0761C38.4318 31.0634 38.4035 31.0519 38.3721 31.0204C38.3447 30.9932 38.2984 31.0099 38.3059 30.8376L38.311 30.2253L38.9937 30.1971C39.3624 30.1971 39.52 30.0772 39.6544 29.9629C39.7827 29.8534 39.8246 29.7276 39.873 29.5574L39.9875 29.0153H39.0494L38.9298 29.3977Z" fill="#FEFEFE"/>
</svg>
